<mxfile host="app.diagrams.net" modified="2022-02-09T21:59:07.379Z" agent="5.0 (Macintosh; Intel Mac OS X 10_15_7) AppleWebKit/537.36 (KHTML, like Gecko) Chrome/98.0.4758.80 Safari/537.36" etag="Nd4X25gRHYCtOvo9bbon" version="16.5.5" type="github">
  <diagram name="Page-1" id="5f0bae14-7c28-e335-631c-24af17079c00">
    <mxGraphModel dx="946" dy="1358" grid="1" gridSize="10" guides="1" tooltips="1" connect="1" arrows="1" fold="1" page="1" pageScale="1" pageWidth="1100" pageHeight="850" background="none" math="0" shadow="0">
      <root>
        <mxCell id="0" />
        <mxCell id="1" parent="0" />
        <mxCell id="vyIvPn-EneIUufrc6VKl-3" value="&lt;p style=&quot;margin: 0px ; margin-top: 6px ; text-align: center&quot;&gt;&lt;b&gt;&amp;lt;&amp;lt;subsystem&amp;gt;&amp;gt;TrackerDevice&lt;/b&gt;&lt;/p&gt;&lt;hr&gt;&lt;p style=&quot;margin: 0px ; margin-left: 8px&quot;&gt;&lt;br&gt;&lt;br&gt;&lt;/p&gt;" style="align=left;overflow=fill;html=1;dropTarget=0;" vertex="1" parent="1">
          <mxGeometry x="210" y="-440" width="650" height="690" as="geometry" />
        </mxCell>
        <mxCell id="vyIvPn-EneIUufrc6VKl-4" value="" style="shape=component;jettyWidth=8;jettyHeight=4;" vertex="1" parent="vyIvPn-EneIUufrc6VKl-3">
          <mxGeometry x="1" width="20" height="20" relative="1" as="geometry">
            <mxPoint x="-24" y="4" as="offset" />
          </mxGeometry>
        </mxCell>
        <mxCell id="vyIvPn-EneIUufrc6VKl-7" value=":User" style="html=1;dropTarget=0;" vertex="1" parent="1">
          <mxGeometry x="300" y="-260" width="180" height="90" as="geometry" />
        </mxCell>
        <mxCell id="vyIvPn-EneIUufrc6VKl-8" value="" style="shape=module;jettyWidth=8;jettyHeight=4;" vertex="1" parent="vyIvPn-EneIUufrc6VKl-7">
          <mxGeometry x="1" width="20" height="20" relative="1" as="geometry">
            <mxPoint x="-27" y="7" as="offset" />
          </mxGeometry>
        </mxCell>
        <mxCell id="vyIvPn-EneIUufrc6VKl-9" value=":People" style="html=1;dropTarget=0;" vertex="1" parent="1">
          <mxGeometry x="570" y="-170" width="180" height="90" as="geometry" />
        </mxCell>
        <mxCell id="vyIvPn-EneIUufrc6VKl-10" value="" style="shape=module;jettyWidth=8;jettyHeight=4;" vertex="1" parent="vyIvPn-EneIUufrc6VKl-9">
          <mxGeometry x="1" width="20" height="20" relative="1" as="geometry">
            <mxPoint x="-27" y="7" as="offset" />
          </mxGeometry>
        </mxCell>
        <mxCell id="vyIvPn-EneIUufrc6VKl-11" value="" style="group" vertex="1" connectable="0" parent="1">
          <mxGeometry x="110" y="510" width="740" height="490" as="geometry" />
        </mxCell>
        <mxCell id="39150e848f15840c-1" value="Block" style="verticalAlign=top;align=left;spacingTop=8;spacingLeft=2;spacingRight=12;shape=cube;size=10;direction=south;fontStyle=4;html=1;rounded=0;shadow=0;comic=0;labelBackgroundColor=none;strokeWidth=1;fontFamily=Verdana;fontSize=12" parent="vyIvPn-EneIUufrc6VKl-11" vertex="1">
          <mxGeometry width="330" height="220" as="geometry" />
        </mxCell>
        <mxCell id="39150e848f15840c-2" value="Block" style="verticalAlign=top;align=left;spacingTop=8;spacingLeft=2;spacingRight=12;shape=cube;size=10;direction=south;fontStyle=4;html=1;rounded=0;shadow=0;comic=0;labelBackgroundColor=none;strokeWidth=1;fontFamily=Verdana;fontSize=12" parent="vyIvPn-EneIUufrc6VKl-11" vertex="1">
          <mxGeometry x="410" width="330" height="220" as="geometry" />
        </mxCell>
        <mxCell id="39150e848f15840c-3" value="Block" style="verticalAlign=top;align=left;spacingTop=8;spacingLeft=2;spacingRight=12;shape=cube;size=10;direction=south;fontStyle=4;html=1;rounded=0;shadow=0;comic=0;labelBackgroundColor=none;strokeWidth=1;fontFamily=Verdana;fontSize=12" parent="vyIvPn-EneIUufrc6VKl-11" vertex="1">
          <mxGeometry x="250" y="340" width="260" height="150" as="geometry" />
        </mxCell>
        <mxCell id="39150e848f15840c-4" value="&amp;laquo;interface&amp;raquo;&lt;br&gt;&lt;b&gt;Name&lt;/b&gt;" style="html=1;rounded=0;shadow=0;comic=0;labelBackgroundColor=none;strokeWidth=1;fontFamily=Verdana;fontSize=12;align=center;" parent="vyIvPn-EneIUufrc6VKl-11" vertex="1">
          <mxGeometry x="40" y="70" width="110" height="50" as="geometry" />
        </mxCell>
        <mxCell id="39150e848f15840c-5" value="Module" style="shape=component;align=left;spacingLeft=36;rounded=0;shadow=0;comic=0;labelBackgroundColor=none;strokeWidth=1;fontFamily=Verdana;fontSize=12;html=1;" parent="vyIvPn-EneIUufrc6VKl-11" vertex="1">
          <mxGeometry x="190" y="65" width="120" height="60" as="geometry" />
        </mxCell>
        <mxCell id="39150e848f15840c-6" value="" style="ellipse;whiteSpace=wrap;html=1;rounded=0;shadow=0;comic=0;labelBackgroundColor=none;strokeWidth=1;fontFamily=Verdana;fontSize=12;align=center;" parent="vyIvPn-EneIUufrc6VKl-11" vertex="1">
          <mxGeometry x="240" y="160" width="20" height="20" as="geometry" />
        </mxCell>
        <mxCell id="39150e848f15840c-7" value="Module" style="shape=component;align=left;spacingLeft=36;rounded=0;shadow=0;comic=0;labelBackgroundColor=none;strokeWidth=1;fontFamily=Verdana;fontSize=12;html=1;" parent="vyIvPn-EneIUufrc6VKl-11" vertex="1">
          <mxGeometry x="440" y="65" width="120" height="60" as="geometry" />
        </mxCell>
        <mxCell id="39150e848f15840c-8" value="&amp;laquo;interface&amp;raquo;&lt;br&gt;&lt;b&gt;Name&lt;/b&gt;" style="html=1;rounded=0;shadow=0;comic=0;labelBackgroundColor=none;strokeWidth=1;fontFamily=Verdana;fontSize=12;align=center;" parent="vyIvPn-EneIUufrc6VKl-11" vertex="1">
          <mxGeometry x="600" y="70" width="110" height="50" as="geometry" />
        </mxCell>
        <mxCell id="39150e848f15840c-9" value="" style="ellipse;whiteSpace=wrap;html=1;rounded=0;shadow=0;comic=0;labelBackgroundColor=none;strokeWidth=1;fontFamily=Verdana;fontSize=12;align=center;" parent="vyIvPn-EneIUufrc6VKl-11" vertex="1">
          <mxGeometry x="500" y="160" width="20" height="20" as="geometry" />
        </mxCell>
        <mxCell id="39150e848f15840c-10" value="Module" style="shape=component;align=left;spacingLeft=36;rounded=0;shadow=0;comic=0;labelBackgroundColor=none;strokeWidth=1;fontFamily=Verdana;fontSize=12;html=1;" parent="vyIvPn-EneIUufrc6VKl-11" vertex="1">
          <mxGeometry x="320" y="390" width="120" height="60" as="geometry" />
        </mxCell>
        <mxCell id="39150e848f15840c-11" style="edgeStyle=none;rounded=0;html=1;dashed=1;labelBackgroundColor=none;startArrow=none;startFill=0;startSize=8;endArrow=open;endFill=0;endSize=16;fontFamily=Verdana;fontSize=12;" parent="vyIvPn-EneIUufrc6VKl-11" source="39150e848f15840c-10" target="39150e848f15840c-6" edge="1">
          <mxGeometry relative="1" as="geometry" />
        </mxCell>
        <mxCell id="39150e848f15840c-12" style="edgeStyle=none;rounded=0;html=1;dashed=1;labelBackgroundColor=none;startArrow=none;startFill=0;startSize=8;endArrow=open;endFill=0;endSize=16;fontFamily=Verdana;fontSize=12;" parent="vyIvPn-EneIUufrc6VKl-11" source="39150e848f15840c-3" target="39150e848f15840c-9" edge="1">
          <mxGeometry relative="1" as="geometry" />
        </mxCell>
        <mxCell id="39150e848f15840c-13" style="edgeStyle=elbowEdgeStyle;rounded=0;html=1;labelBackgroundColor=none;startArrow=none;startFill=0;startSize=8;endArrow=none;endFill=0;endSize=16;fontFamily=Verdana;fontSize=12;" parent="vyIvPn-EneIUufrc6VKl-11" source="39150e848f15840c-9" target="39150e848f15840c-7" edge="1">
          <mxGeometry relative="1" as="geometry" />
        </mxCell>
        <mxCell id="39150e848f15840c-14" style="edgeStyle=elbowEdgeStyle;rounded=0;html=1;labelBackgroundColor=none;startArrow=none;startFill=0;startSize=8;endArrow=none;endFill=0;endSize=16;fontFamily=Verdana;fontSize=12;" parent="vyIvPn-EneIUufrc6VKl-11" source="39150e848f15840c-6" target="39150e848f15840c-5" edge="1">
          <mxGeometry relative="1" as="geometry" />
        </mxCell>
        <mxCell id="39150e848f15840c-15" style="edgeStyle=orthogonalEdgeStyle;rounded=0;html=1;labelBackgroundColor=none;startArrow=none;startFill=0;startSize=8;endArrow=open;endFill=0;endSize=16;fontFamily=Verdana;fontSize=12;dashed=1;" parent="vyIvPn-EneIUufrc6VKl-11" source="39150e848f15840c-5" target="39150e848f15840c-4" edge="1">
          <mxGeometry relative="1" as="geometry">
            <Array as="points">
              <mxPoint x="230" y="150" />
              <mxPoint x="95" y="150" />
            </Array>
          </mxGeometry>
        </mxCell>
        <mxCell id="39150e848f15840c-16" style="edgeStyle=orthogonalEdgeStyle;rounded=0;html=1;dashed=1;labelBackgroundColor=none;startArrow=none;startFill=0;startSize=8;endArrow=open;endFill=0;endSize=16;fontFamily=Verdana;fontSize=12;" parent="vyIvPn-EneIUufrc6VKl-11" source="39150e848f15840c-7" target="39150e848f15840c-8" edge="1">
          <mxGeometry relative="1" as="geometry" />
        </mxCell>
        <mxCell id="39150e848f15840c-17" style="edgeStyle=orthogonalEdgeStyle;rounded=0;html=1;labelBackgroundColor=none;startArrow=none;startFill=0;startSize=8;endArrow=none;endFill=0;endSize=16;fontFamily=Verdana;fontSize=12;" parent="vyIvPn-EneIUufrc6VKl-11" source="39150e848f15840c-3" target="39150e848f15840c-2" edge="1">
          <mxGeometry relative="1" as="geometry">
            <Array as="points">
              <mxPoint x="575" y="415" />
            </Array>
          </mxGeometry>
        </mxCell>
        <mxCell id="39150e848f15840c-18" style="edgeStyle=orthogonalEdgeStyle;rounded=0;html=1;labelBackgroundColor=none;startArrow=none;startFill=0;startSize=8;endArrow=none;endFill=0;endSize=16;fontFamily=Verdana;fontSize=12;" parent="vyIvPn-EneIUufrc6VKl-11" source="39150e848f15840c-3" target="39150e848f15840c-1" edge="1">
          <mxGeometry relative="1" as="geometry">
            <Array as="points">
              <mxPoint x="165" y="415" />
            </Array>
          </mxGeometry>
        </mxCell>
        <mxCell id="vyIvPn-EneIUufrc6VKl-14" value=":Timer" style="html=1;dropTarget=0;" vertex="1" parent="1">
          <mxGeometry x="570" y="-395" width="180" height="90" as="geometry" />
        </mxCell>
        <mxCell id="vyIvPn-EneIUufrc6VKl-15" value="" style="shape=module;jettyWidth=8;jettyHeight=4;" vertex="1" parent="vyIvPn-EneIUufrc6VKl-14">
          <mxGeometry x="1" width="20" height="20" relative="1" as="geometry">
            <mxPoint x="-27" y="7" as="offset" />
          </mxGeometry>
        </mxCell>
        <mxCell id="vyIvPn-EneIUufrc6VKl-16" value=":Location" style="html=1;dropTarget=0;" vertex="1" parent="1">
          <mxGeometry x="300" y="-395" width="180" height="90" as="geometry" />
        </mxCell>
        <mxCell id="vyIvPn-EneIUufrc6VKl-17" value="" style="shape=module;jettyWidth=8;jettyHeight=4;" vertex="1" parent="vyIvPn-EneIUufrc6VKl-16">
          <mxGeometry x="1" width="20" height="20" relative="1" as="geometry">
            <mxPoint x="-27" y="7" as="offset" />
          </mxGeometry>
        </mxCell>
        <mxCell id="vyIvPn-EneIUufrc6VKl-18" value=":PeopleInProximity" style="html=1;dropTarget=0;" vertex="1" parent="1">
          <mxGeometry x="570" y="10" width="180" height="90" as="geometry" />
        </mxCell>
        <mxCell id="vyIvPn-EneIUufrc6VKl-19" value="" style="shape=module;jettyWidth=8;jettyHeight=4;" vertex="1" parent="vyIvPn-EneIUufrc6VKl-18">
          <mxGeometry x="1" width="20" height="20" relative="1" as="geometry">
            <mxPoint x="-27" y="7" as="offset" />
          </mxGeometry>
        </mxCell>
        <mxCell id="vyIvPn-EneIUufrc6VKl-20" value="" style="ellipse;whiteSpace=wrap;html=1;aspect=fixed;" vertex="1" parent="1">
          <mxGeometry x="130" y="-360" width="20" height="20" as="geometry" />
        </mxCell>
        <mxCell id="vyIvPn-EneIUufrc6VKl-21" value="" style="endArrow=none;html=1;rounded=0;exitX=1;exitY=0.5;exitDx=0;exitDy=0;" edge="1" parent="1" source="vyIvPn-EneIUufrc6VKl-20" target="vyIvPn-EneIUufrc6VKl-22">
          <mxGeometry width="50" height="50" relative="1" as="geometry">
            <mxPoint x="440" y="-200" as="sourcePoint" />
            <mxPoint x="200" y="-350" as="targetPoint" />
          </mxGeometry>
        </mxCell>
        <mxCell id="vyIvPn-EneIUufrc6VKl-22" value="" style="whiteSpace=wrap;html=1;aspect=fixed;" vertex="1" parent="1">
          <mxGeometry x="200" y="-360" width="20" height="20" as="geometry" />
        </mxCell>
        <mxCell id="vyIvPn-EneIUufrc6VKl-23" value="" style="endArrow=none;html=1;rounded=0;exitX=1;exitY=0.5;exitDx=0;exitDy=0;" edge="1" parent="1" source="vyIvPn-EneIUufrc6VKl-22">
          <mxGeometry width="50" height="50" relative="1" as="geometry">
            <mxPoint x="440" y="-200" as="sourcePoint" />
            <mxPoint x="250" y="-350" as="targetPoint" />
          </mxGeometry>
        </mxCell>
        <mxCell id="vyIvPn-EneIUufrc6VKl-24" value="" style="ellipse;whiteSpace=wrap;html=1;aspect=fixed;" vertex="1" parent="1">
          <mxGeometry x="250" y="-360" width="20" height="20" as="geometry" />
        </mxCell>
        <mxCell id="vyIvPn-EneIUufrc6VKl-25" value="" style="endArrow=none;html=1;rounded=0;exitX=1;exitY=0.5;exitDx=0;exitDy=0;" edge="1" parent="1" source="vyIvPn-EneIUufrc6VKl-24">
          <mxGeometry width="50" height="50" relative="1" as="geometry">
            <mxPoint x="440" y="-200" as="sourcePoint" />
            <mxPoint x="300" y="-350" as="targetPoint" />
          </mxGeometry>
        </mxCell>
        <mxCell id="vyIvPn-EneIUufrc6VKl-26" value="BlueTooth On" style="shape=note;whiteSpace=wrap;html=1;backgroundOutline=1;darkOpacity=0.05;size=10;" vertex="1" parent="1">
          <mxGeometry x="40" y="-365" width="80" height="30" as="geometry" />
        </mxCell>
        <mxCell id="vyIvPn-EneIUufrc6VKl-30" value="" style="shape=requiredInterface;html=1;verticalLabelPosition=bottom;sketch=0;rotation=-181;" vertex="1" parent="1">
          <mxGeometry x="510" y="-360" width="10" height="20" as="geometry" />
        </mxCell>
        <mxCell id="vyIvPn-EneIUufrc6VKl-32" value="" style="endArrow=none;html=1;rounded=0;entryX=1;entryY=0.5;entryDx=0;entryDy=0;entryPerimeter=0;exitX=1;exitY=0.5;exitDx=0;exitDy=0;" edge="1" parent="1" source="vyIvPn-EneIUufrc6VKl-16" target="vyIvPn-EneIUufrc6VKl-30">
          <mxGeometry width="50" height="50" relative="1" as="geometry">
            <mxPoint x="440" y="-250" as="sourcePoint" />
            <mxPoint x="490" y="-300" as="targetPoint" />
          </mxGeometry>
        </mxCell>
        <mxCell id="vyIvPn-EneIUufrc6VKl-34" value="" style="ellipse;whiteSpace=wrap;html=1;aspect=fixed;" vertex="1" parent="1">
          <mxGeometry x="520" y="-360" width="20" height="20" as="geometry" />
        </mxCell>
        <mxCell id="vyIvPn-EneIUufrc6VKl-35" value="" style="endArrow=none;html=1;rounded=0;entryX=0;entryY=0.5;entryDx=0;entryDy=0;exitX=1;exitY=0.5;exitDx=0;exitDy=0;" edge="1" parent="1" source="vyIvPn-EneIUufrc6VKl-34" target="vyIvPn-EneIUufrc6VKl-14">
          <mxGeometry width="50" height="50" relative="1" as="geometry">
            <mxPoint x="440" y="-250" as="sourcePoint" />
            <mxPoint x="490" y="-300" as="targetPoint" />
          </mxGeometry>
        </mxCell>
        <mxCell id="vyIvPn-EneIUufrc6VKl-50" value="" style="shape=providedRequiredInterface;html=1;verticalLabelPosition=bottom;sketch=0;rotation=-90;" vertex="1" parent="1">
          <mxGeometry x="647.5" y="-260" width="25" height="30" as="geometry" />
        </mxCell>
        <mxCell id="vyIvPn-EneIUufrc6VKl-51" value="" style="endArrow=none;html=1;rounded=0;entryX=0.5;entryY=1;entryDx=0;entryDy=0;exitX=1;exitY=0.5;exitDx=0;exitDy=0;exitPerimeter=0;" edge="1" parent="1" source="vyIvPn-EneIUufrc6VKl-50" target="vyIvPn-EneIUufrc6VKl-14">
          <mxGeometry width="50" height="50" relative="1" as="geometry">
            <mxPoint x="440" y="-180" as="sourcePoint" />
            <mxPoint x="490" y="-230" as="targetPoint" />
          </mxGeometry>
        </mxCell>
        <mxCell id="vyIvPn-EneIUufrc6VKl-52" value="" style="endArrow=none;html=1;rounded=0;entryX=0;entryY=0.5;entryDx=0;entryDy=0;entryPerimeter=0;" edge="1" parent="1" source="vyIvPn-EneIUufrc6VKl-9" target="vyIvPn-EneIUufrc6VKl-50">
          <mxGeometry width="50" height="50" relative="1" as="geometry">
            <mxPoint x="440" y="-180" as="sourcePoint" />
            <mxPoint x="490" y="-230" as="targetPoint" />
          </mxGeometry>
        </mxCell>
        <mxCell id="vyIvPn-EneIUufrc6VKl-53" value="" style="shape=providedRequiredInterface;html=1;verticalLabelPosition=bottom;sketch=0;rotation=-90;" vertex="1" parent="1">
          <mxGeometry x="647.5" y="-60" width="25" height="30" as="geometry" />
        </mxCell>
        <mxCell id="vyIvPn-EneIUufrc6VKl-55" value="" style="endArrow=none;html=1;rounded=0;entryX=0.539;entryY=1.017;entryDx=0;entryDy=0;entryPerimeter=0;exitX=1;exitY=0.5;exitDx=0;exitDy=0;exitPerimeter=0;" edge="1" parent="1" source="vyIvPn-EneIUufrc6VKl-53" target="vyIvPn-EneIUufrc6VKl-9">
          <mxGeometry width="50" height="50" relative="1" as="geometry">
            <mxPoint x="440" y="-50" as="sourcePoint" />
            <mxPoint x="490" y="-100" as="targetPoint" />
          </mxGeometry>
        </mxCell>
        <mxCell id="vyIvPn-EneIUufrc6VKl-56" value="" style="endArrow=none;html=1;rounded=0;entryX=0;entryY=0.5;entryDx=0;entryDy=0;entryPerimeter=0;" edge="1" parent="1" source="vyIvPn-EneIUufrc6VKl-18" target="vyIvPn-EneIUufrc6VKl-53">
          <mxGeometry width="50" height="50" relative="1" as="geometry">
            <mxPoint x="440" y="-50" as="sourcePoint" />
            <mxPoint x="490" y="-100" as="targetPoint" />
          </mxGeometry>
        </mxCell>
      </root>
    </mxGraphModel>
  </diagram>
</mxfile>
